<?xml version="1.0" encoding="UTF-8" standalone="no"?>
<svg
   width="100"
   height="30"
   fill="none"
   version="1.1"
   id="svg3"
   sodipodi:docname="action-populaire_small.svg"
   inkscape:version="1.4.2 (ebf0e940d0, 2025-05-08)"
   xmlns:inkscape="http://www.inkscape.org/namespaces/inkscape"
   xmlns:sodipodi="http://sodipodi.sourceforge.net/DTD/sodipodi-0.dtd"
   xmlns="http://www.w3.org/2000/svg"
   xmlns:svg="http://www.w3.org/2000/svg">
  <defs
     id="defs3" />
  <sodipodi:namedview
     id="namedview3"
     pagecolor="#ffffff"
     bordercolor="#000000"
     borderopacity="0.25"
     inkscape:showpageshadow="2"
     inkscape:pageopacity="0.0"
     inkscape:pagecheckerboard="0"
     inkscape:deskcolor="#d1d1d1"
     inkscape:zoom="13.702282"
     inkscape:cx="67.470514"
     inkscape:cy="26.272996"
     inkscape:window-width="2560"
     inkscape:window-height="1368"
     inkscape:window-x="0"
     inkscape:window-y="0"
     inkscape:window-maximized="1"
     inkscape:current-layer="svg3" />
  <path
     d="m 38.205927,10.633206 h -3.659061 l -0.587294,1.747267 h -2.500509 l 3.547816,-9.8907418 h 2.766094 l 3.547816,9.8897318 H 38.793221 L 38.205927,10.632196 Z M 37.591573,8.7738315 36.376897,5.1530504 35.174248,8.7738315 Z m 4.334549,-0.3242038 c 0,-0.8180845 0.16336,-1.5311309 0.489078,-2.1411593 a 3.5047209,3.5319027 0 0 1 1.383047,-1.4089231 c 0.596313,-0.3292538 1.27581,-0.4938806 2.039493,-0.4938806 0.978155,0 1.79295,0.2585551 2.445387,0.7756652 0.660455,0.5161002 1.093409,1.2442963 1.297859,2.1835784 H 47.040389 C 46.825917,6.7639698 46.412005,6.4629955 45.797651,6.4629955 c -0.438967,0 -0.787735,0.1737167 -1.048309,0.5211501 -0.260574,0.3383435 -0.390861,0.8261642 -0.390861,1.4644721 0,0.6393178 0.130287,1.1321884 0.390861,1.4796218 0.260574,0.3383435 0.609342,0.5080205 1.047307,0.5080205 0.615356,0 1.029268,-0.300975 1.242738,-0.901913 h 2.542601 c -0.20445,0.920092 -0.637404,1.643239 -1.298861,2.169438 -0.661457,0.52519 -1.476252,0.788795 -2.444385,0.788795 -0.763683,0 -1.443179,-0.164626 -2.039493,-0.49287 A 3.5047209,3.5319027 0 0 1 42.416202,10.590787 C 42.090484,9.9807585 41.927125,9.2667021 41.927125,8.4496277 Z m 13.27725,1.8876543 v 2.042181 h -1.215678 c -0.865908,0 -1.540394,-0.211086 -2.02446,-0.633258 -0.485069,-0.432272 -0.726601,-1.131179 -0.726601,-2.0997501 V 6.5195544 H 50.28654 V 4.5197925 h 0.950093 V 2.602849 h 2.388262 v 1.9159335 h 1.564446 v 1.9997619 h -1.563444 v 3.1561899 c 0,0.2353255 0.05512,0.4039927 0.166366,0.5070097 0.112248,0.104028 0.298658,0.155538 0.559232,0.155538 z m 2.531577,-6.6355739 c -0.418923,0 -0.76268,-0.1211977 -1.033276,-0.366623 A 1.2327157,1.2422763 0 0 1 56.310812,2.4059028 c 0,-0.3757129 0.130287,-0.685777 0.390861,-0.9291823 0.270596,-0.2545152 0.614353,-0.3807628 1.033276,-0.3807628 0.410905,0 0.745643,0.1262476 1.006217,0.3797528 0.270596,0.2444153 0.404892,0.5544794 0.404892,0.9291823 0,0.367633 -0.135298,0.6766871 -0.404892,0.9301923 -0.260574,0.2444153 -0.596314,0.366623 -1.006217,0.366623 z m 1.187616,0.8180844 V 12.379463 H 56.534304 V 4.5187825 h 2.388261 z m 5.279632,7.9727875 c -0.763683,0 -1.453202,-0.164626 -2.067555,-0.49287 A 3.6410212,3.6692601 0 0 1 60.695471,10.590787 C 60.350712,9.9807585 60.179334,9.2667021 60.179334,8.4496277 c 0,-0.8079847 0.176389,-1.5169911 0.53117,-2.1280295 a 3.5909108,3.6187611 0 0 1 1.4522,-1.4220529 c 0.614353,-0.3292538 1.30287,-0.4938806 2.067554,-0.4938806 0.762681,0 1.453202,0.1646268 2.066553,0.4938806 a 3.5909108,3.6187611 0 0 1 1.453201,1.4230629 c 0.35378,0.6100284 0.531171,1.3190348 0.531171,2.1270195 0,0.8079846 -0.1814,1.521031 -0.545202,2.1411593 a 3.5949196,3.622801 0 0 1 -1.46623,1.408923 c -0.615355,0.328244 -1.303872,0.49287 -2.067554,0.49287 z m 0,-2.0846 c 0.456004,0 0.841854,-0.169677 1.159554,-0.50802 0.325718,-0.3373335 0.488075,-0.8211143 0.488075,-1.4503323 0,-0.6292181 -0.158349,-1.1129988 -0.475046,-1.4513424 A 1.4902831,1.5018414 0 0 0 64.230258,6.491275 c -0.466026,0 -0.851876,0.1686667 -1.159554,0.5070103 -0.307678,0.3292537 -0.461016,0.8120245 -0.461016,1.4513424 0,0.629218 0.148327,1.1129988 0.446985,1.4503323 0.306676,0.338343 0.688517,0.50802 1.145524,0.50802 z M 74.297436,4.4339441 c 0.912009,0 1.639612,0.3009743 2.179802,0.9019129 0.54921,0.5918487 0.823815,1.4089231 0.823815,2.4512233 V 12.379463 H 74.925821 V 8.1112841 c 0,-0.52519 -0.134296,-0.9342322 -0.404892,-1.2261166 -0.270596,-0.2908745 -0.633396,-0.4363117 -1.0894,-0.4363117 -0.456005,0 -0.819806,0.1454372 -1.0894,0.4363117 -0.270596,0.2918844 -0.404892,0.6999166 -0.404892,1.2261166 V 12.379463 H 69.547973 V 4.5187825 h 2.389264 V 5.5610827 A 2.4654313,2.4845527 0 0 1 72.914389,4.7440082 3.0467119,3.0703415 0 0 1 74.297436,4.4339441 Z M 39.574943,19.32813 c 0,0.572659 -0.130287,1.098859 -0.390861,1.57759 -0.260574,0.469641 -0.661458,0.850404 -1.201648,1.141278 -0.539187,0.290875 -1.209664,0.437322 -2.011431,0.437322 h -1.480261 v 3.550083 h -2.389263 v -9.889732 h 3.869524 c 0.781722,0 1.44318,0.136347 1.984372,0.408032 0.54019,0.272695 0.945082,0.648408 1.214676,1.127139 0.270596,0.478731 0.404892,1.02816 0.404892,1.648288 z m -3.785339,1.240257 c 0.456004,0 0.796755,-0.108068 1.020247,-0.324204 0.223493,-0.216136 0.334738,-0.52115 0.334738,-0.916053 0,-0.393892 -0.111245,-0.699916 -0.334738,-0.916052 -0.223492,-0.215126 -0.564243,-0.323194 -1.020247,-0.323194 h -1.298862 v 2.478493 h 1.298862 z m 8.577897,5.578123 c -0.763683,0 -1.453202,-0.164626 -2.067555,-0.49287 a 3.6410212,3.6692601 0 0 1 -1.439171,-1.408923 c -0.344759,-0.610029 -0.517139,-1.324085 -0.517139,-2.14116 0,-0.807984 0.177391,-1.516991 0.53117,-2.127019 a 3.5909108,3.6187611 0 0 1 1.453202,-1.424073 c 0.614353,-0.328244 1.30287,-0.491861 2.066552,-0.491861 0.763683,0 1.453202,0.163617 2.067555,0.492871 a 3.5909108,3.6187611 0 0 1 1.453202,1.423063 c 0.353779,0.610028 0.53117,1.319035 0.53117,2.127019 0,0.807985 -0.182402,1.521031 -0.545201,2.14116 a 3.5939174,3.621791 0 0 1 -1.467233,1.408923 c -0.614353,0.328244 -1.30287,0.49287 -2.066552,0.49287 z m 0,-2.0846 c 0.456004,0 0.841854,-0.169677 1.158552,-0.50701 0.32672,-0.338344 0.489077,-0.822125 0.489077,-1.451343 0,-0.629218 -0.158348,-1.112998 -0.475046,-1.451342 a 1.4902831,1.5018414 0 0 0 -1.145524,-0.50701 c -0.465024,0 -0.851876,0.169676 -1.158552,0.50701 -0.307678,0.329254 -0.461016,0.813035 -0.461016,1.451342 0,0.629218 0.148327,1.112999 0.446985,1.451343 0.306676,0.337333 0.688517,0.50701 1.145524,0.50701 z m 7.734038,-4.776199 c 0.233514,-0.365613 0.554221,-0.661537 0.964124,-0.886763 0.409903,-0.226236 0.88996,-0.338344 1.43917,-0.338344 0.641413,0 1.224698,0.163617 1.745846,0.492871 0.521148,0.328244 0.932054,0.797885 1.229709,1.408923 0.306676,0.610029 0.461016,1.319035 0.461016,2.12702 0,0.807984 -0.15434,1.521031 -0.461016,2.141159 -0.298658,0.611038 -0.708561,1.084719 -1.229709,1.423063 a 3.2261071,3.2511281 0 0 1 -1.745846,0.49287 c -0.541192,0 -1.020247,-0.112107 -1.43917,-0.338343 a 2.6408177,2.6612993 0 0 1 -0.964124,-0.872624 v 4.845888 H 49.713277 V 18.172712 h 2.388262 z m 3.408509,2.803707 c 0,-0.600939 -0.167369,-1.07058 -0.503109,-1.408923 a 1.6035326,1.6159692 0 0 0 -1.214676,-0.521151 1.6335988,1.6462686 0 0 0 -1.215678,0.521151 c -0.325717,0.347433 -0.488075,0.822124 -0.488075,1.423062 0,0.600939 0.162358,1.07563 0.488075,1.423063 a 1.6335988,1.6462686 0 0 0 1.215678,0.52115 1.6335988,1.6462686 0 0 0 1.214676,-0.52115 c 0.33574,-0.357533 0.503109,-0.836264 0.503109,-1.437202 z M 66.89112,18.172712 v 7.861691 h -2.388261 v -1.07058 a 2.6688795,2.6895788 0 0 1 -0.992186,0.844344 3.0166457,3.0400421 0 0 1 -1.369016,0.310064 c -0.596314,0 -1.122473,-0.131298 -1.578477,-0.393893 a 2.7310164,2.7521976 0 0 1 -1.062341,-1.169557 c -0.250552,-0.507011 -0.37683,-1.103909 -0.37683,-1.788676 v -4.593393 h 2.375233 v 4.269189 c 0,0.52519 0.135298,0.934232 0.404892,1.225107 0.270596,0.290874 0.633395,0.437321 1.0894,0.437321 0.466026,0 0.833837,-0.146447 1.103431,-0.437321 0.270596,-0.290875 0.404892,-0.699917 0.404892,-1.225107 v -4.269189 z m 4.104041,-2.563331 V 26.034403 H 68.607902 V 15.609381 h 2.388262 z m 1.256769,6.480037 c 0,-0.807985 0.148327,-1.516991 0.446985,-2.12702 0.306675,-0.611038 0.721589,-1.080679 1.242738,-1.408923 a 3.2251049,3.2501181 0 0 1 1.746848,-0.492871 c 0.54921,0 1.028265,0.112108 1.438168,0.338344 0.418923,0.225226 0.740632,0.52115 0.964124,0.886763 v -1.112999 h 2.388261 v 7.861691 h -2.388261 v -1.112999 a 2.5686588,2.5885807 0 0 1 -0.978155,0.886763 C 76.702735,26.034403 76.22368,26.14651 75.67447,26.14651 A 3.2020541,3.2268885 0 0 1 73.941653,25.65364 C 73.420504,25.315296 73.00559,24.841615 72.698915,24.230577 72.400257,23.610449 72.25193,22.897402 72.25193,22.089418 Z m 5.838863,0.01414 c 0,-0.600938 -0.167369,-1.075629 -0.503108,-1.423062 a 1.5884995,1.6008195 0 0 0 -1.201647,-0.521151 1.6335988,1.6462686 0 0 0 -1.214676,0.521151 c -0.325718,0.338343 -0.489078,0.807984 -0.489078,1.408923 0,0.600938 0.16336,1.080679 0.489078,1.437202 a 1.6335988,1.6462686 0 0 0 1.214676,0.52115 c 0.475046,0 0.875929,-0.173716 1.202649,-0.52115 0.334737,-0.347433 0.501104,-0.822124 0.501104,-1.424073 z m 5.317715,-4.747919 c -0.418923,0 -0.763682,-0.121198 -1.033276,-0.365613 a 1.2327157,1.2422763 0 0 1 -0.390861,-0.930192 c 0,-0.375713 0.130287,-0.685777 0.390861,-0.929183 0.270596,-0.254515 0.614353,-0.380763 1.033276,-0.380763 0.410905,0 0.745643,0.126248 1.006217,0.379753 0.270596,0.244416 0.404892,0.55549 0.404892,0.930193 0,0.366623 -0.135298,0.676687 -0.404892,0.929182 -0.260574,0.244415 -0.596314,0.366623 -1.006217,0.366623 z m 1.187616,0.818084 v 7.860681 h -2.388261 v -7.861691 h 2.388261 z m 4.120077,1.308935 a 3.0797848,3.1036709 0 0 1 1.047307,-1.01402 2.6618641,2.6825089 0 0 1 1.397078,-0.379753 v 2.549191 H 90.50414 c -0.596314,0 -1.043299,0.131298 -1.340954,0.393893 -0.298658,0.254515 -0.446985,0.704966 -0.446985,1.353374 v 3.649061 h -2.389264 v -7.861691 h 2.389264 z M 99.650289,21.9763 c 0,0.226236 -0.01403,0.460551 -0.04209,0.704966 H 94.20229 c 0.03708,0.487821 0.190419,0.863534 0.461015,1.127139 0.278614,0.252495 0.619365,0.379753 1.019246,0.379753 0.596313,0 1.010225,-0.252495 1.24374,-0.760516 h 2.541599 c -0.130287,0.5161 -0.36781,0.981701 -0.711568,1.394784 -0.335739,0.414092 -0.759673,0.737286 -1.271802,0.971601 a 4.1000324,4.1318313 0 0 1 -1.717784,0.353493 c -0.763682,0 -1.444181,-0.165636 -2.039493,-0.49388 a 3.4746547,3.5016033 0 0 1 -1.397078,-1.408923 c -0.335739,-0.610029 -0.503108,-1.324085 -0.503108,-2.14116 0,-0.818084 0.16336,-1.53113 0.489077,-2.141159 a 3.4806679,3.5076632 0 0 1 1.397078,-1.408923 c 0.596314,-0.329254 1.280822,-0.492871 2.053524,-0.492871 0.75366,0 1.424138,0.159577 2.011431,0.478731 a 3.3674184,3.3935354 0 0 1 1.369016,1.366504 c 0.334738,0.591849 0.503109,1.282676 0.503109,2.070461 z m -2.445388,-0.633258 c 0,-0.414092 -0.139306,-0.742336 -0.418922,-0.986751 -0.279616,-0.243406 -0.628385,-0.365613 -1.047308,-0.365613 -0.400883,0 -0.740631,0.117157 -1.020247,0.351473 -0.269594,0.235325 -0.436963,0.568619 -0.502106,0.999881 h 2.988583 z"
     fill="#000a2c"
     id="path1"
     style="stroke-width:1.00609" />
  <path
     d="M 15.001808,27.73723 8.1186436,20.795632 C 4.316267,16.960735 4.2862007,10.774603 8.0514957,6.9780857 11.816792,3.180558 17.950304,3.2108574 21.751678,7.0447444 c 3.802377,3.8348966 3.832443,10.0210286 0.06715,13.8175466 z"
     fill="#f4ed0f"
     id="path2"
     style="stroke-width:1.00609" />
  <path
     fill-rule="evenodd"
     clip-rule="evenodd"
     d="m 4.8394195,15.810367 5.4319675,5.479146 5.432969,-5.479146 a 7.6929476,7.7526123 0 0 0 0,-10.9582908 7.6789166,7.7384726 0 0 0 -10.8649365,0 7.6929476,7.7526123 0 0 0 0,10.9582908 z m 5.4319675,8.790873 7.075588,-7.134504 c 3.906606,-3.940945 3.906606,-10.3290734 0,-14.2700183 a 10.00003,10.077588 0 0 0 -14.1501742,0 c -3.90660617,3.9409449 -3.90660617,10.3290733 0,14.2700183 l 7.0755882,7.134504 z"
     fill="#000a2c"
     id="path3"
     style="stroke-width:1.00609" />
</svg>
